Shootout At Wadala 2013 Hindi Movies DVDScr Sample Included New Source ~ Γÿ╗rDXΓÿ╗

Screen Shots :
 
http://myimghosting.serveftp.com/13/ShootoutAtWadala.html
 
http://myimghost.cwahi.net/ShootoutAtWadala.html
 
http://users2.jabry.com/myimghost/Shootout%20At%20Wadala/Shootout%20At%20Wadala.jpg

Format                                   : AVI
Format/Info                              : Audio Video Interleave
File size                                : 691 MiB
Duration                                 : 2h 10mn
Overall bit rate                         : 741 Kbps
Writing library                          : MPlayer

Video
ID                                       : 0
Format                                   : MPEG-4 Visual
Format profile                           : Advanced Simple@L5
Format settings, BVOP                    : 2
Format settings, QPel                    : No
Format settings, GMC                     : No warppoints
Format settings, Matrix                  : Default (H.263)
Codec ID                                 : XVID
Codec ID/Hint                            : XviD
Duration                                 : 2h 10mn
Bit rate                                 : 608 Kbps
Width                                    : 576 pixels
Height                                   : 272 pixels
Display aspect ratio                     : 2.118
Frame rate                               : 25.000 fps
Color space                              : YUV
Chroma subsampling                       : 4:2:0
Bit depth                                : 8 bits
Scan type                                : Progressive
Compression mode                         : Lossy
Bits/(Pixel*Frame)                       : 0.155
Stream size                              : 567 MiB (82%)
Writing library                          : XviD 1.2.1 (UTC 2008-12-04)

Audio
ID                                       : 1
Format                                   : AC-3
Format/Info                              : Audio Coding 3
Mode extension                           : CM (complete main)
Format settings, Endianness              : Big
Codec ID                                 : 2000
Duration                                 : 2h 10mn
Bit rate mode                            : Constant
Bit rate                                 : 128 Kbps
Channel(s)                               : 2 channels
Channel positions                        : Front: L R
Sampling rate                            : 48.0 KHz
Bit depth                                : 16 bits
Compression mode                         : Lossy
Stream size                              : 119 MiB (17%)
Alignment                                : Split accross interleaves
Interleave, duration                     : 500 ms (12.50 video frames)
Interleave, preload duration             : 500 ms